<svg xmlns="http://www.w3.org/2000/svg" version="1.1" xmlns:xlink="http://www.w3.org/1999/xlink" xmlns:svgjs="http://svgjs.com/svgjs" width="1440" height="560" preserveAspectRatio="none" viewBox="0 0 1440 560"><g mask="url(&quot;#SvgjsMask1002&quot;)" fill="none"><rect width="1440" height="560" x="0" y="0" fill="#0e2a47"></rect><path d="M0 2.19C0.04 0.28 1.26 0.03 3.18 0C71.26 -1.06 71.59 0 140 0C210 0 210 0 280 0C326.66 0 350.28 -27.78 373.33 0C408.36 42.22 376.64 75.56 396.17 140C399.98 152.56 407.08 154 420 154C446.99 154 473.56 161.89 476 140C482.15 84.89 414.43 37.93 437.19 0C456.43 -32.07 498.6 0 560 0C630 0 630 0 700 0C750.91 0 755.63 -11.88 801.82 0C825.63 6.12 821.36 36 840 36C857.71 36 852.05 5.78 874.52 0C922.05 -12.22 927.26 0 980 0C1039.23 0 1042.87 -8.69 1098.46 0C1112.87 2.25 1109.58 21.88 1120 21.88C1129.81 21.88 1125.42 2.11 1138.92 0C1195.42 -8.83 1199.46 0 1260 0C1330 0 1330 0 1400 0C1455 0 1462.36 -14.29 1510 0C1532.36 6.71 1534.83 17.85 1540 42C1549.83 87.85 1540 91 1540 140C1540 189 1549.83 192.15 1540 238C1534.83 262.15 1527.44 261.07 1510 280C1457.44 337.07 1457.74 338.4 1400 390C1379.41 408.4 1353.33 407.59 1353.33 420C1353.33 431.11 1377.11 427.4 1400 437.03C1470.45 466.67 1490.07 454.68 1540 498.54C1560.07 516.17 1561.36 550.63 1540 560C1491.36 581.36 1470 560 1400 560C1330 560 1330 560 1260 560C1190 560 1190 560 1120 560C1050 560 1050 560 980 560C910 560 910 560 840 560C770 560 770 560 700 560C630 560 630 560 560 560C490 560 490 560 420 560C350 560 350 560 280 560C210 560 210 560 140 560C70 560 41.82 588.18 0 560C-28.18 541.01 -28.18 484.91 0 465.65C41.82 437.06 76.27 480.04 140 464.3C168.7 457.21 184.87 444.25 184.87 420C184.87 389.69 172.88 361.74 140 355.19C80.45 343.32 40.64 404.98 0 383.16C-29.36 367.39 0 331.58 0 280C0 210 0 210 0 140C0 71.09 -1.55 70.28 0 2.19" stroke="rgba(51, 121, 194, 0.58)" stroke-width="2"></path><path d="M140 94.06C120.58 94.06 105 116.03 105 140C105 168.4 120.18 198.8 140 198.8C162.18 198.8 189 167.89 189 140C189 115.52 162.58 94.06 140 94.06" stroke="rgba(51, 121, 194, 0.58)" stroke-width="2"></path><path d="M280 239.27C258.47 239.27 230.22 260.98 230.22 280C230.22 297.57 257.8 312.46 280 312.46C295.41 312.46 305.45 296.91 305.45 280C305.45 260.31 296.08 239.27 280 239.27" stroke="rgba(51, 121, 194, 0.58)" stroke-width="2"></path><path d="M560 224C552.13 224 546 252.94 546 280C546 293.39 552.33 304.89 560 304.89C568.22 304.89 577.78 293.85 577.78 280C577.78 253.4 568.02 224 560 224" stroke="rgba(51, 121, 194, 0.58)" stroke-width="2"></path><path d="M980 208.37C948.67 214.06 943.76 244.44 943.76 280C943.76 313.73 949.5 341.09 980 346.96C1037.62 358.06 1052.75 337.08 1120 313.94C1150.07 303.6 1174.63 296.61 1174.63 280C1174.63 263.64 1149.51 258.86 1120 248C1052.19 223.04 1036.79 198.06 980 208.37" stroke="rgba(51, 121, 194, 0.58)" stroke-width="2"></path><path d="M420 412.63C414.81 412.63 410.18 416.05 410.18 420C410.18 424.32 414.72 429.18 420 429.18C426.46 429.18 433.66 424.26 433.66 420C433.66 415.98 426.55 412.63 420 412.63" stroke="rgba(51, 121, 194, 0.58)" stroke-width="2"></path><path d="M700 380C675.22 380 647.8 393.51 647.8 420C647.8 470.54 676.52 534.07 700 534.07C722.62 534.07 740 472.48 740 420C740 395.44 721.32 380 700 380" stroke="rgba(51, 121, 194, 0.58)" stroke-width="2"></path><path d="M0 56.88C17.64 56.88 34.58 96.47 63.33 140C104.58 202.43 99.92 205.83 140 268.8C144.48 275.83 152.44 274.52 152.44 280C152.44 285.3 147.73 288.25 140 290.37C71.51 309.13 54.22 325.77 0 321.75C-15.78 320.58 0 300.88 0 280C0 210 0 210 0 140C0 98.44 -14.03 56.88 0 56.88" stroke="rgba(51, 121, 194, 0.58)" stroke-width="2"></path><path d="M140 39.38C109.62 39.38 82.73 10.79 82.73 0C82.73 -8.9 111.37 0 140 0C183.45 0 226.9 -9.39 226.9 0C226.9 10.3 181.7 39.38 140 39.38" stroke="rgba(51, 121, 194, 0.58)" stroke-width="2"></path><path d="M247.33 140C247.33 103.66 261.82 61.6 280 61.6C299.01 61.6 321.7 104.75 321.7 140C321.7 161.77 299.76 175.64 280 175.64C262.58 175.64 247.33 160.68 247.33 140" stroke="rgba(51, 121, 194, 0.58)" stroke-width="2"></path><path d="M560 92.11C526.53 48.27 498.6 29.62 498.6 0C498.6 -16.43 529.3 0 560 0C630 0 630 0 700 0C724.39 0 729.18 -12.05 748.79 0C799.18 30.95 795.48 86 840 86C882.32 86 875.26 29 922.47 0C945.26 -14 951.24 0 980 0C1012.31 0 1018.33 -14.38 1044.62 0C1088.33 23.9 1083.55 76.56 1120 76.56C1154.35 76.56 1145.73 22.14 1186.22 0C1215.73 -16.14 1223.11 0 1260 0C1330 0 1330 0 1400 0C1413.34 0 1418.71 -9.73 1426.67 0C1475.99 60.27 1514.55 70 1514.55 140C1514.55 210 1473.3 212.15 1426.67 280C1416.03 295.48 1417.44 306.67 1400 306.67C1334.1 306.67 1330 293.34 1260 280C1260 280 1260 280 1260 280C1190 239 1191.54 236.08 1120 198C1060.03 166.08 1056.6 171.72 996.97 140C986.6 134.49 988.61 123.53 980 123.53C971.1 123.53 967.3 129.17 961.94 140C928.59 207.4 899.27 211.31 902.59 280C906.04 351.31 938.17 350.7 975.48 420C976.87 422.59 977.66 423.78 980 423.78C982.61 423.78 982.34 421.23 985.38 420C1052.34 392.83 1053.7 366.97 1120 366.97C1175.7 366.97 1185.45 382.86 1229.38 420C1255.45 442.04 1230.99 474.39 1260 485.33C1316.3 506.55 1335.48 465.73 1400 484.32C1465.05 503.06 1519.15 539.48 1519.15 560C1519.15 577.32 1459.57 560 1400 560C1330 560 1330 560 1260 560C1190 560 1190 560 1120 560C1050 560 1050 560 980 560C929.6 560 923.26 574.02 879.2 560C853.26 551.75 856.43 539.99 840 515.45C809.56 469.99 818.8 463.09 785.45 420C748.8 372.64 744.41 375.42 700 334.55C668.35 305.42 651.11 316.61 633.33 280C603.86 219.34 630.57 204.22 605.5 140C593.9 110.28 579.98 118.27 560 92.11" stroke="rgba(51, 121, 194, 0.58)" stroke-width="2"></path><path d="M345.23 280C381.11 237.6 381.64 197.75 420 197.75C460.15 197.75 502.25 238.35 502.25 280C502.25 322.76 463.96 326.48 420 366.58C387.22 396.48 348.77 391.36 348.77 420C348.77 451.35 383.08 454.78 420 486.56C464.41 524.78 511.43 539.37 511.43 560C511.43 576.09 465.72 560 420 560C350 560 350 560 280 560C210 560 210 560 140 560C70 560 61.92 568.08 0 560C-8.08 558.95 -7.88 544.63 0 541.74C62.12 518.94 78.79 541.05 140 508.61C193.66 480.18 186.03 465.4 229.74 420C256.03 392.69 255.88 392.43 280 363.19C313.62 322.43 311.11 320.32 345.23 280" stroke="rgba(51, 121, 194, 0.58)" stroke-width="2"></path><path d="M519.02 420C519.02 399.11 541.2 382.67 560 382.67C575.92 382.67 588.47 399.94 588.47 420C588.47 447.57 576.54 477.93 560 477.93C541.82 477.93 519.02 446.74 519.02 420" stroke="rgba(51, 121, 194, 0.58)" stroke-width="2"></path><path d="M0 111.56C6.03 111.56 21.67 123.55 21.67 140C21.67 181.1 5.5 226.67 0 226.67C-5.34 226.67 0 183.33 0 140C0 125.78 -4.8 111.56 0 111.56" stroke="rgba(51, 121, 194, 0.58)" stroke-width="2"></path><path d="M693 140C694.86 104.89 677.03 70.62 700 70C750.53 68.62 769.95 103.1 840 136C844.47 138.1 848.33 135.27 849.03 140C859.03 207.27 858.02 209.86 861.41 280C864.79 349.86 871.52 354.89 862.58 420C860.82 432.85 849.52 435.91 840 435.91C833.68 435.91 837.21 426.61 830.91 420C767.21 353.2 765.9 354.05 700 289.09C694.89 284.05 689.22 286.93 688.89 280C685.72 212.38 689.3 209.89 693 140" stroke="rgba(51, 121, 194, 0.58)" stroke-width="2"></path><path d="M980 20.59C974.97 20.59 970.41 7.24 970.41 0C970.41 -3.06 975.2 0 980 0C985.38 0 990.77 -3.26 990.77 0C990.77 7.03 985.15 20.59 980 20.59" stroke="rgba(51, 121, 194, 0.58)" stroke-width="2"></path><path d="M1103.03 140C1103.03 135.78 1110.67 131.25 1120 131.25C1165.82 131.25 1213.33 135.81 1213.33 140C1213.33 144.19 1165.95 148 1120 148C1110.8 148 1103.03 144.15 1103.03 140" stroke="rgba(51, 121, 194, 0.58)" stroke-width="2"></path><path d="M1260 122.5C1238.64 122.5 1233.51 50.56 1233.51 0C1233.51 -10.69 1246.76 0 1260 0C1291.61 0 1323.23 -19.26 1323.23 0C1323.23 41.99 1283.5 122.5 1260 122.5" stroke="rgba(51, 121, 194, 0.58)" stroke-width="2"></path><path d="M385 280C385 260.53 402.04 241.5 420 241.5C438.79 241.5 458.5 260.5 458.5 280C458.5 300.02 438.77 320.53 420 320.53C402.02 320.53 385 300.04 385 280" stroke="rgba(51, 121, 194, 0.58)" stroke-width="2"></path><path d="M274.62 420C277.5 417.14 277.07 413.91 280 413.91C283.45 413.91 283.87 416.75 287.37 420C353.87 481.76 353.14 482.6 420 543.93C429.45 552.6 440 555.48 440 560C440 563.52 430 560 420 560C350 560 350 560 280 560C210 560 210 560 140 560C127.82 560 115.65 561.74 115.65 560C115.65 558.19 130.6 561.18 140 552.91C210.09 491.18 207.5 486.64 274.62 420" stroke="rgba(51, 121, 194, 0.58)" stroke-width="2"></path><path d="M949.2 560C949.2 546.95 960.16 534.64 980 518.38C1045.56 464.64 1069.5 408.85 1120 420C1163.73 429.66 1168.46 507.25 1168.46 560C1168.46 577.25 1144.23 560 1120 560C1050 560 1050 560 980 560C964.6 560 949.2 567.76 949.2 560" stroke="rgba(51, 121, 194, 0.58)" stroke-width="2"></path><path d="M1334.38 560C1334.38 552.6 1368.31 531.62 1400 531.62C1423.46 531.62 1444.68 552.31 1444.68 560C1444.68 566.5 1422.34 560 1400 560C1367.19 560 1334.38 566.79 1334.38 560" stroke="rgba(51, 121, 194, 0.58)" stroke-width="2"></path></g><defs><mask id="SvgjsMask1002"><rect width="1440" height="560" fill="#ffffff"></rect></mask></defs></svg>