<svg xmlns="http://www.w3.org/2000/svg" version="1.1" xmlns:xlink="http://www.w3.org/1999/xlink" xmlns:svgjs="http://svgjs.com/svgjs" width="1440" height="560" preserveAspectRatio="none" viewBox="0 0 1440 560"><g mask="url(&quot;#SvgjsMask1084&quot;)" fill="none"><rect width="1440" height="560" x="0" y="0" fill="#0e2a47"></rect><g transform="translate(0, 0)" stroke-linecap="round"><path d="M270.5 124.86 L270.5 435.14" stroke-width="21.75" stroke="#3a7cc3"></path><path d="M299.5 142.89 L299.5 417.11" stroke-width="21.75" stroke="#dd1133"></path><path d="M328.5 201.83 L328.5 358.17" stroke-width="21.75" stroke="#3a7cc3"></path><path d="M357.5 162.7 L357.5 397.3" stroke-width="21.75" stroke="#3a7cc3"></path><path d="M386.5 136 L386.5 424" stroke-width="21.75" stroke="#3a7cc3"></path><path d="M415.5 118.75 L415.5 441.25" stroke-width="21.75" stroke="#3a7cc3"></path><path d="M444.5 236.82 L444.5 323.18" stroke-width="21.75" stroke="#dd1133"></path><path d="M473.5 161.17 L473.5 398.83" stroke-width="21.75" stroke="#dd1133"></path><path d="M502.5 243.56 L502.5 316.44" stroke-width="21.75" stroke="#3a7cc3"></path><path d="M531.5 161.5 L531.5 398.5" stroke-width="21.75" stroke="#dd1133"></path><path d="M560.5 218.84 L560.5 341.17" stroke-width="21.75" stroke="#dd1133"></path><path d="M589.5 117.58 L589.5 442.42" stroke-width="21.75" stroke="#dd1133"></path><path d="M618.5 258.25 L618.5 301.75" stroke-width="21.75" stroke="#dd1133"></path><path d="M647.5 258.83 L647.5 301.17" stroke-width="21.75" stroke="#3a7cc3"></path><path d="M676.5 229.92 L676.5 330.08" stroke-width="21.75" stroke="#3a7cc3"></path><path d="M705.5 212.56 L705.5 347.44" stroke-width="21.75" stroke="#3a7cc3"></path><path d="M734.5 249.79 L734.5 310.21" stroke-width="21.75" stroke="#dd1133"></path><path d="M763.5 153.63 L763.5 406.38" stroke-width="21.75" stroke="#3a7cc3"></path><path d="M792.5 168.97 L792.5 391.02" stroke-width="21.75" stroke="#dd1133"></path><path d="M821.5 113.28 L821.5 446.73" stroke-width="21.75" stroke="#dd1133"></path><path d="M850.5 154.97 L850.5 405.03" stroke-width="21.75" stroke="#3a7cc3"></path><path d="M879.5 153.88 L879.5 406.13" stroke-width="21.75" stroke="#3a7cc3"></path><path d="M908.5 170.56 L908.5 389.44" stroke-width="21.75" stroke="#3a7cc3"></path><path d="M937.5 120.88 L937.5 439.12" stroke-width="21.75" stroke="#dd1133"></path><path d="M966.5 149.33 L966.5 410.67" stroke-width="21.75" stroke="#3a7cc3"></path><path d="M995.5 116.56 L995.5 443.44" stroke-width="21.75" stroke="#3a7cc3"></path><path d="M1024.5 206.26 L1024.5 353.74" stroke-width="21.75" stroke="#3a7cc3"></path><path d="M1053.5 219.86 L1053.5 340.14" stroke-width="21.75" stroke="#dd1133"></path><path d="M1082.5 170.58 L1082.5 389.42" stroke-width="21.75" stroke="#3a7cc3"></path><path d="M1111.5 212.41 L1111.5 347.59" stroke-width="21.75" stroke="#dd1133"></path><path d="M1140.5 127.36 L1140.5 432.64" stroke-width="21.75" stroke="#dd1133"></path><path d="M1169.5 191.54 L1169.5 368.46" stroke-width="21.75" stroke="#3a7cc3"></path></g></g><defs><mask id="SvgjsMask1084"><rect width="1440" height="560" fill="#ffffff"></rect></mask></defs></svg>